# xmcd
#
# Track frame offsets: 
#        182
#        10437
#        24252
#        35640
#        51425
#        63225
#        75900
#        94250
#        114675
#        126925
#        144750
#        159650
#        172737
#        187105
#        202065
#        216612
#
# Disc length: 3073 seconds
#
# Revision: 1
# Processed by: cddbd v1.5.2PL0 Copyright (c) Steve Scherf et al.
# Submitted via: ExactAudioCopyFreeDBPlugin 1.0
#
DISCID=e20bff10
DTITLE=Bing Crosby - Some Sunny Day
DYEAR=1900
DGENRE=Oldies
TTITLE0=In A Little Spanish Town
TTITLE1=I`m Gonna Sit Right Now
TTITLE2=Swinging On A Star
TTITLE3=Whispering
TTITLE4=A Gal In Calico
TTITLE5=Some Sunny Day
TTITLE6=Vaja Con Dios
TTITLE7=I Love You, Samantha
TTITLE8=Dream A Little Dream Of Me
TTITLE9=Mack The Knife
TTITLE10=Down Among The Sheltering Palms
TTITLE11=Let A Smile Be Your Umbrella
TTITLE12=When The Blue Of The Night Meets...
TTITLE13=Exactly Like You
TTITLE14=Mama Loves Papa
TTITLE15=True Love [With Grace Kelly]
EXTD=
EXTT0=
EXTT1=
EXTT2=
EXTT3=
EXTT4=
EXTT5=
EXTT6=
EXTT7=
EXTT8=
EXTT9=
EXTT10=
EXTT11=
EXTT12=
EXTT13=
EXTT14=
EXTT15=
PLAYORDER=
